<?xml version="1.0" encoding="UTF-8" standalone="no"?>
<!DOCTYPE svg PUBLIC "-//W3C//DTD SVG 1.1//EN" "http://www.w3.org/Graphics/SVG/1.1/DTD/svg11.dtd">
<svg version="1.1" xmlns="http://www.w3.org/2000/svg" xmlns:xlink="http://www.w3.org/1999/xlink" preserveAspectRatio="xMidYMid meet" viewBox="0 0 600 600" width="300" height="300"><defs><path d="M93.75 18.75L506.25 18.75L506.25 81.25L93.75 81.25L93.75 18.75Z" id="a1zKQx2NsW"></path><path d="M506.25 581.25C347.58 282.81 248.42 96.29 208.75 21.68C208.04 20.35 209.01 18.75 210.51 18.75C249.94 18.75 348.52 18.75 506.25 18.75L506.25 581.25Z" id="bKwdZzmi8"></path><path d="M93.75 279.17L414.58 279.17L414.58 341.67L93.75 341.67L93.75 279.17Z" id="biM4dfnYN"></path><path d="M93.75 518.75L506.25 518.75L506.25 581.25L93.75 581.25L93.75 518.75Z" id="c7ITibgNK"></path><path d="M93.75 581.25L391.67 18.75L93.75 18.75L93.75 581.25Z" id="bkBQb33wh"></path></defs><g><g><g><use xlink:href="#a1zKQx2NsW" opacity="1" fill="#309ee2" fill-opacity="0.75"></use></g><g><use xlink:href="#bKwdZzmi8" opacity="1" fill="#26b3e8" fill-opacity="0.75"></use></g><g><use xlink:href="#biM4dfnYN" opacity="1" fill="#1ce4e2" fill-opacity="0.75"></use></g><g><use xlink:href="#c7ITibgNK" opacity="1" fill="#309ee2" fill-opacity="0.75"></use></g><g><use xlink:href="#bkBQb33wh" opacity="1" fill="#4677e7" fill-opacity="0.75"></use></g></g></g></svg>