<?xml version="1.0" encoding="UTF-8" standalone="no"?>
<!DOCTYPE svg PUBLIC "-//W3C//DTD SVG 1.1//EN" "http://www.w3.org/Graphics/SVG/1.1/DTD/svg11.dtd">
<svg version="1.1" xmlns="http://www.w3.org/2000/svg" xmlns:xlink="http://www.w3.org/1999/xlink" preserveAspectRatio="xMidYMid meet" viewBox="0 0 412 562" width="412" height="562"><defs><path d="M0 0L412.5 0L412.5 62.5L0 62.5L0 0Z" id="d3PfnTSpyx"></path><path d="M412.5 562.5C272.7 263.91 185.32 77.29 150.37 2.65C149.79 1.41 150.69 0 152.05 0C186.78 0 273.59 0 412.5 0L412.5 562.5Z" id="akhOLcxtV"></path><path d="M0 262.5L356.25 262.5L356.25 325L0 325L0 262.5Z" id="adk5gyvqe"></path><path d="M0 500L412.5 500L412.5 562.5L0 562.5L0 500Z" id="bLhERctW"></path><path d="M0 562.5L262.5 0L0 0L0 562.5Z" id="b2A7QQA9hn"></path></defs><g><g><g><use xlink:href="#d3PfnTSpyx" opacity="1" fill="#33e7c0" fill-opacity="0.75"></use></g><g><use xlink:href="#akhOLcxtV" opacity="1" fill="#198bdc" fill-opacity="0.75"></use></g><g><use xlink:href="#adk5gyvqe" opacity="1" fill="#33e7c0" fill-opacity="0.75"></use></g><g><use xlink:href="#bLhERctW" opacity="1" fill="#33e7c0" fill-opacity="0.75"></use></g><g><use xlink:href="#b2A7QQA9hn" opacity="1" fill="#19c9dc" fill-opacity="0.75"></use></g></g></g></svg>